<svg xmlns="http://www.w3.org/2000/svg" width="611.988" height="611.988"><path d="M22.672 159.188h90.687l79.532 108.892 28.521-36.978s-79.623-109.913-85.382-117.235H22.672C10.157 113.867 0 125.974 0 138.352c0 12.379 10.157 20.836 22.672 20.836zm488.076 230.48c-6.756-6.688-27.886-4.92-34.643 1.769v62.483h-90.687l-80.145-109.709-28.521 36.978L362.747 497.2h113.358v65.112c6.757 6.688 27.887 3.719 34.643-2.97l96.174-72.708a17.024 17.024 0 000-24.236l-96.174-72.73zm-34.643-230.48v60.941c6.757 6.688 27.887 9.477 34.643 2.789l96.174-72.708a17.024 17.024 0 000-24.236l-96.174-72.708c-6.756-6.711-27.886-10.565-34.643-3.877v64.479H362.747L113.358 453.942H22.672C10.157 453.942 0 462.398 0 474.8c0 12.379 10.157 24.486 22.672 24.486H136.03L385.419 159.21h90.687v-.022z"/></svg>