<svg height="512" viewBox="0 0 512.003 512.003" width="512" xmlns="http://www.w3.org/2000/svg"><path d="M503.995 105.373c-6.868-8.498-17.076-13.371-28.004-13.371H85.737l-3.485-24.976C79.784 49.34 64.456 36.002 46.597 36.002H16c-8.836 0-16 7.164-16 16s7.164 16 16 16h30.597a4.016 4.016 0 013.961 3.447l43.189 309.529c2.468 17.687 17.796 31.024 35.655 31.024h17.349a47.774 47.774 0 00-2.752 16c0 26.467 21.533 48 48 48s48-21.533 48-48c0-5.609-.976-10.992-2.752-16h85.504a47.774 47.774 0 00-2.752 16c0 26.467 21.533 48 48 48s48-21.533 48-48c0-5.609-.976-10.992-2.752-16H448c8.836 0 16-7.164 16-16s-7.164-16-16-16H129.403a4.016 4.016 0 01-3.961-3.447l-3.984-28.553H436.56c16.858 0 31.663-11.965 35.205-28.458l39.429-183.997c2.291-10.681-.333-21.679-7.199-30.174zM208 428.002c0 8.822-7.178 16-16 16s-16-7.178-16-16 7.178-16 16-16 16 7.177 16 16zm176 0c0 8.822-7.178 16-16 16s-16-7.178-16-16 7.178-16 16-16 16 7.177 16 16zm95.905-299.163l-39.428 183.993a4.03 4.03 0 01-3.917 3.169H116.992l-26.79-192H475.99c1.583 0 2.569.808 3.117 1.486.547.677 1.129 1.808.798 3.352z"/></svg>