<svg aria-hidden="true" style="position: absolute; width: 0; height: 0; overflow: hidden;" version="1.1" xmlns="http://www.w3.org/2000/svg" xmlns:xlink="http://www.w3.org/1999/xlink">
<defs>
<symbol id="arrow" viewBox="0 0 32 32">
<path d="M1.185 8.324h4.742l4.159 5.694 1.491-1.934s-4.163-5.747-4.465-6.13h-5.927c-0.654 0-1.185 0.633-1.185 1.28s0.531 1.090 1.185 1.090zM26.706 20.375c-0.353-0.35-1.458-0.257-1.811 0.093v3.267h-4.742l-4.191-5.737-1.491 1.934 4.497 6.066h5.927v3.405c0.353 0.35 1.458 0.194 1.811-0.155l5.029-3.802c0.164-0.162 0.265-0.386 0.265-0.634s-0.101-0.472-0.265-0.634l-0-0-5.029-3.803zM24.895 8.324v3.187c0.353 0.35 1.458 0.496 1.811 0.146l5.029-3.802c0.164-0.162 0.265-0.386 0.265-0.634s-0.101-0.472-0.265-0.634l-0-0-5.029-3.802c-0.353-0.351-1.458-0.552-1.811-0.203v3.372h-5.927l-13.040 17.782h-4.742c-0.654 0-1.185 0.442-1.185 1.091 0 0.647 0.531 1.28 1.185 1.28h5.927l13.040-17.782 4.742-0.001z"></path>
</symbol>
<symbol id="back" viewBox="0 0 32 32">
<path d="M10.353 16.007l13.906-13.906c0.481-0.481 0.481-1.26 0-1.741s-1.26-0.481-1.741 0l-14.776 14.776c-0.481 0.481-0.481 1.26 0 1.741l14.776 14.776c0.489 0.472 1.269 0.459 1.741-0.030 0.461-0.477 0.461-1.234 0-1.711l-13.906-13.906z"></path>
</symbol>
<symbol id="buy" viewBox="0 0 32 32">
<path d="M31.5 6.586c-0.429-0.531-1.067-0.836-1.75-0.836h-24.391l-0.218-1.561c-0.154-1.105-1.112-1.939-2.228-1.939h-1.912c-0.552 0-1 0.448-1 1s0.448 1 1 1h1.912c0.126 0 0.23 0.093 0.247 0.214l0 0.001 2.699 19.345c0.154 1.105 1.112 1.939 2.228 1.939h1.084c-0.109 0.297-0.172 0.641-0.172 0.999 0 0 0 0.001 0 0.001v-0c0 1.654 1.346 3 3 3s3-1.346 3-3c0-0.351-0.061-0.687-0.172-1h5.344c-0.109 0.297-0.172 0.641-0.172 0.999 0 0 0 0.001 0 0.001v-0c0 1.654 1.346 3 3 3s3-1.346 3-3c0-0.351-0.061-0.687-0.172-1h2.172c0.552 0 1-0.448 1-1s-0.448-1-1-1h-19.912c-0.126-0-0.23-0.093-0.247-0.214l-0-0.001-0.249-1.785h19.694c1.054 0 1.979-0.748 2.2-1.779l2.464-11.5c0.143-0.668-0.021-1.355-0.45-1.886zM13 26.75c0 0.551-0.449 1-1 1s-1-0.449-1-1 0.449-1 1-1 1 0.449 1 1zM24 26.75c0 0.551-0.449 1-1 1s-1-0.449-1-1 0.449-1 1-1 1 0.449 1 1zM29.994 8.052l-2.464 11.499c-0.026 0.114-0.125 0.197-0.245 0.198h-19.973l-1.674-12h24.112c0.099 0 0.161 0.051 0.195 0.093s0.071 0.113 0.050 0.209z"></path>
</symbol>
<symbol id="clock" viewBox="0 0 32 32">
<path d="M16 0c-8.837 0-16 7.163-16 16s7.163 16 16 16 16-7.163 16-16c-0.009-8.833-7.167-15.991-16-16zM16 29.714c-7.574 0-13.714-6.14-13.714-13.714s6.14-13.714 13.714-13.714 13.714 6.14 13.714 13.714c-0.008 7.571-6.143 13.706-13.714 13.714z"></path>
<path d="M16 5.714c-0.631 0-1.143 0.512-1.143 1.143v8h-8c-0.631 0-1.143 0.512-1.143 1.143s0.512 1.143 1.143 1.143h9.143c0.631 0 1.143-0.512 1.143-1.143v-9.143c0-0.631-0.512-1.143-1.143-1.143z"></path>
</symbol>
<symbol id="heart" viewBox="0 0 32 32">
<path d="M29.383 3.928c-1.602-1.718-3.878-2.791-6.404-2.795h-0.001c-2.529 0.003-4.807 1.075-6.407 2.789l-0.005 0.005-0.565 0.597-0.565-0.597c-3.289-3.54-8.826-3.744-12.366-0.454-0.159 0.148-0.307 0.296-0.449 0.449l-0.005 0.005c-3.489 3.764-3.489 9.58 0 13.344l12.555 13.24c0.434 0.459 1.158 0.478 1.617 0.044 0.015-0.014 0.030-0.029 0.044-0.044l12.55-13.24c3.489-3.763 3.489-9.58-0-13.343zM27.728 15.696h-0.001l-11.725 12.366-11.726-12.366c-2.666-2.876-2.666-7.32 0-10.196 2.421-2.624 6.51-2.788 9.134-0.367 0.129 0.119 0.249 0.239 0.364 0.363l0.004 0.004 1.394 1.471c0.459 0.456 1.201 0.456 1.661 0l1.394-1.47c2.421-2.624 6.51-2.788 9.134-0.367 0.129 0.119 0.249 0.239 0.364 0.363l0.004 0.004c2.689 2.88 2.709 7.332 0 10.194z"></path>
</symbol>
<symbol id="right" viewBox="0 0 32 32">
<path d="M23.815 15.539l-14.667-15.333c-0.255-0.264-0.677-0.276-0.943-0.021s-0.275 0.676-0.021 0.943l14.225 14.873-14.225 14.873c-0.254 0.266-0.245 0.688 0.021 0.943 0.119 0.114 0.281 0.185 0.46 0.185 0 0 0.001 0 0.001 0h-0c0 0 0 0 0.001 0 0.189 0 0.36-0.079 0.481-0.206l0-0 14.667-15.333c0.246-0.258 0.246-0.664 0-0.922z"></path>
</symbol>
</defs>
</svg>
